<svg width="128" height="128" xmlns="http://www.w3.org/2000/svg" xmlns:xlink="http://www.w3.org/1999/xlink">
  <style>
    path { fill: #000; }
    @media (prefers-color-scheme: dark) {
      path { fill: #ffffff; }
    }
  </style>
  <path d="M 87.907516 75.086678 C 89.314949 73.679245 90.756409 72.63504 92.231934 71.954025 C 93.707466 71.27301 95.239731 70.93251 96.828758 70.93251 C 100.143028 70.93251 102.980545 72.124268 105.341393 74.507813 C 107.702248 76.891365 108.882652 79.740234 108.882652 83.054504 C 108.882652 86.368774 107.724945 89.149536 105.4095 91.396889 C 103.094048 93.644234 100.233826 94.767891 96.828758 94.767891 C 93.514496 94.767891 90.711029 93.632889 88.418274 91.362839 C 86.125526 89.092789 84.979172 86.277969 84.979172 82.918304 C 84.979172 82.191887 85.024574 81.522232 85.115372 80.909317 C 85.206177 80.296402 85.365074 79.717552 85.592079 79.172745 L 66.319473 68.004166 L 66.319473 90.273224 C 69.588341 91.317444 72.005905 92.792953 73.572235 94.699791 C 75.138573 96.606628 75.921722 98.990143 75.921722 101.850403 C 75.921722 105.210075 74.775368 108.058945 72.48262 110.397095 C 70.189873 112.735237 67.386406 113.904297 64.072136 113.904297 C 60.712467 113.904297 57.874947 112.735237 55.559502 110.397095 C 53.244053 108.058945 52.086346 105.210075 52.086346 101.850403 C 52.086346 99.126343 52.880852 96.799583 54.469883 94.870041 C 56.058914 92.940506 58.46513 91.408249 61.688599 90.273224 L 61.688599 68.140366 L 42.484093 79.172745 C 42.665695 79.717552 42.801895 80.296402 42.892696 80.909317 C 42.983498 81.522232 43.0289 82.191887 43.0289 82.918304 C 43.0289 86.277969 41.882542 89.115494 39.589794 91.430939 C 37.297047 93.746384 34.49358 94.904099 31.17931 94.904099 C 27.86504 94.904099 25.038874 93.723686 22.700726 91.362839 C 20.362576 89.001984 19.19352 86.187172 19.19352 82.918304 C 19.19352 79.604034 20.362576 76.800568 22.700726 74.507813 C 25.038874 72.215073 27.86504 71.06871 31.17931 71.06871 C 32.859146 71.06871 34.414104 71.397865 35.844234 72.056183 C 37.274364 72.714493 38.693123 73.724648 40.100552 75.086678 L 59.373161 63.918098 L 39.964352 52.817619 C 38.556923 54.179649 37.138165 55.189812 35.708035 55.848122 C 34.277905 56.506432 32.722942 56.835587 31.043108 56.835587 C 27.683437 56.835587 24.868622 55.700577 22.598574 53.430527 C 20.328526 51.160477 19.19352 48.345665 19.19352 44.985992 C 19.19352 41.717133 20.351225 38.902313 22.666676 36.541458 C 24.982124 34.180611 27.774239 33.000206 31.043108 33.000206 C 34.35738 33.000206 37.183548 34.157906 39.521694 36.473358 C 41.85984 38.788811 43.0289 41.626328 43.0289 44.985992 C 43.0289 45.71241 42.983498 46.382065 42.892696 46.99498 C 42.801895 47.607887 42.665695 48.186745 42.484093 48.731552 L 61.688599 59.900131 L 61.688599 37.562973 C 58.419727 36.382553 56.002163 34.838943 54.435833 32.932106 C 52.869499 31.025269 52.086346 28.664452 52.086346 25.849586 C 52.086346 22.580727 53.255402 19.788605 55.593552 17.473152 C 57.931698 15.157707 60.757866 14 64.072136 14 C 67.341003 14 70.133118 15.157707 72.44857 17.473152 C 74.764023 19.788605 75.921722 22.580727 75.921722 25.849586 C 75.921722 28.755249 75.12722 31.172821 73.538185 33.102356 C 71.949158 35.031891 69.542938 36.518753 66.319473 37.562973 L 66.319473 59.900131 L 85.728279 48.731552 C 85.455879 48.005135 85.262924 47.33548 85.149422 46.722572 C 85.035919 46.109665 84.979172 45.530807 84.979172 44.985992 C 84.979172 41.626328 86.148224 38.788811 88.486374 36.473358 C 90.824524 34.157906 93.650696 33.000206 96.964966 33.000206 C 100.279228 33.000206 103.094048 34.157906 105.4095 36.473358 C 107.724945 38.788811 108.882652 41.580925 108.882652 44.849792 C 108.882652 48.164063 107.724945 50.990227 105.4095 53.328377 C 103.094048 55.666527 100.279228 56.835587 96.964966 56.835587 C 95.239731 56.835587 93.650719 56.506432 92.197884 55.848122 C 90.745056 55.189812 89.360344 54.179649 88.043716 52.817619 L 68.839211 63.918098 Z"/>
</svg>
